<svg width="150" height="150" viewBox="0 0 150 150" fill="none" xmlns="http://www.w3.org/2000/svg">
<g clip-path="url(#clip0_4_7323)">
<path d="M75 150C116.421 150 150 116.421 150 75C150 33.5786 116.421 0 75 0C33.5786 0 0 33.5786 0 75C0 116.421 33.5786 150 75 150Z" fill="#F0F0F0"/>
<path d="M71.7393 74.9999H150C150 68.2306 149.098 61.6728 147.416 55.4346H71.7393V74.9999Z" fill="#D80027"/>
<path d="M71.7393 35.8695H138.992C134.401 28.3777 128.531 21.7558 121.686 16.3042H71.7393V35.8695Z" fill="#D80027"/>
<path d="M74.9998 150C92.6509 150 108.875 143.899 121.686 133.696H28.3135C41.125 143.899 57.3487 150 74.9998 150Z" fill="#D80027"/>
<path d="M11.0078 114.13H138.992C142.678 108.116 145.536 101.542 147.416 94.5649H2.5835C4.46348 101.542 7.32197 108.116 11.0078 114.13Z" fill="#D80027"/>
<path d="M34.7414 11.7123H41.5761L35.2187 16.331L37.6471 23.8043L31.2899 19.1856L24.9328 23.8043L27.0305 17.3481C21.433 22.0107 16.527 27.4734 12.484 33.5602H14.6739L10.6271 36.5001C9.99668 37.5519 9.39199 38.6203 8.8125 39.7046L10.7449 45.6521L7.13965 43.0327C6.24346 44.9314 5.42373 46.8729 4.68691 48.8549L6.81592 55.408H14.6739L8.3165 60.0267L10.7449 67.5L4.38779 62.8813L0.579785 65.6481C0.198633 68.712 0 71.8327 0 75H75C75 33.5789 75 28.6957 75 0C60.184 0 46.3726 4.29785 34.7414 11.7123ZM37.6471 67.5L31.2899 62.8813L24.9328 67.5L27.3612 60.0267L21.0038 55.408H28.8618L31.2899 47.9347L33.7181 55.408H41.5761L35.2187 60.0267L37.6471 67.5ZM35.2187 38.1788L37.6471 45.6521L31.2899 41.0335L24.9328 45.6521L27.3612 38.1788L21.0038 33.5602H28.8618L31.2899 26.0868L33.7181 33.5602H41.5761L35.2187 38.1788ZM64.5492 67.5L58.1921 62.8813L51.835 67.5L54.2634 60.0267L47.906 55.408H55.764L58.1921 47.9347L60.6202 55.408H68.4782L62.1208 60.0267L64.5492 67.5ZM62.1208 38.1788L64.5492 45.6521L58.1921 41.0335L51.835 45.6521L54.2634 38.1788L47.906 33.5602H55.764L58.1921 26.0868L60.6202 33.5602H68.4782L62.1208 38.1788ZM62.1208 16.331L64.5492 23.8043L58.1921 19.1856L51.835 23.8043L54.2634 16.331L47.906 11.7123H55.764L58.1921 4.23897L60.6202 11.7123H68.4782L62.1208 16.331Z" fill="#0052B4"/>
</g>
<defs>
<clipPath id="clip0_4_7323">
<rect width="150" height="150" fill="white"/>
</clipPath>
</defs>
</svg>
