<svg width="150" height="150" viewBox="0 0 150 150" fill="none" xmlns="http://www.w3.org/2000/svg">
<g clip-path="url(#clip0_303_2)">
<path d="M75 150C116.421 150 150 116.421 150 75C150 33.5786 116.421 0 75 0C33.5786 0 0 33.5786 0 75C0 116.421 33.5786 150 75 150Z" fill="#F0F0F0"/>
<path d="M145.335 101.087C148.35 92.9618 150 84.1739 150 74.9999C150 65.8259 148.35 57.038 145.335 48.9131H4.66494C1.65029 57.038 0 65.8259 0 74.9999C0 84.1739 1.65029 92.9618 4.66494 101.087L75 107.608L145.335 101.087Z" fill="#0052B4"/>
<path d="M75.0001 150C107.247 150 134.738 129.647 145.335 101.087H4.66504C15.262 129.647 42.7527 150 75.0001 150Z" fill="#D80027"/>
</g>
<defs>
<clipPath id="clip0_303_2">
<rect width="150" height="150" fill="white"/>
</clipPath>
</defs>
</svg>
