<svg width="150" height="150" viewBox="0 0 150 150" fill="none" xmlns="http://www.w3.org/2000/svg">
<g clip-path="url(#clip0_4_7325)">
<path d="M3.54141 52.1741C1.24395 59.3718 -0.000292917 67.0396 5.1725e-08 74.9993C-0.000292917 82.9593 1.24424 90.6277 3.5417 97.8254L75 101.087L146.458 97.826C148.755 90.628 150 82.9593 150 74.9999C150 67.0399 148.756 59.3718 146.458 52.1738L75 48.9131L3.54141 52.1741Z" fill="#F0F0F0"/>
<path d="M146.458 52.1743L74.9997 48.9136L3.54111 52.1743C2.86025 54.3083 2.27402 56.4842 1.78271 58.6961H148.216C147.725 56.4839 147.139 54.3077 146.458 52.1743Z" fill="#D80027"/>
<path d="M1.78369 91.3042C2.27441 93.5161 2.86064 95.6917 3.5415 97.8257L3.54854 97.826L74.9995 101.087L146.458 97.826C147.139 95.692 147.725 93.5161 148.216 91.3042H1.78369Z" fill="#D80027"/>
<path d="M74.9995 150C108.461 150 136.8 128.085 146.458 97.8257H3.5415C13.1992 128.084 41.5387 150 74.9995 150Z" fill="#6DA544"/>
<path d="M74.9998 0.000488284C41.5387 0.000781253 13.1998 21.9157 3.5415 52.1744L146.458 52.1747C136.801 21.9154 108.462 0.000195315 74.9998 0.000488284Z" fill="#338AF3"/>
<path d="M34.2732 30.9783C34.2732 23.9538 39.2101 18.0856 45.8027 16.646C44.7896 16.4245 43.7382 16.3047 42.6583 16.3047C34.5542 16.3047 27.9844 22.8742 27.9844 30.9786C27.9844 39.083 34.5536 45.6525 42.6583 45.6525C43.7382 45.6525 44.7894 45.5324 45.8027 45.3112C39.2104 43.871 34.2732 38.0028 34.2732 30.9783Z" fill="#F0F0F0"/>
<path d="M54.4758 37.6484L55.4689 40.7056H58.6834L56.083 42.5952L57.0762 45.6523L54.4758 43.763L51.8748 45.6523L52.8683 42.5952L50.2676 40.7056H53.482L54.4758 37.6484Z" fill="#F0F0F0"/>
<path d="M64.7354 37.6484L65.7289 40.7056H68.9434L66.3427 42.5952L67.3361 45.6523L64.7354 43.763L62.1348 45.6523L63.1282 42.5952L60.5278 40.7056H63.742L64.7354 37.6484Z" fill="#F0F0F0"/>
<path d="M74.9958 37.6484L75.989 40.7056H79.2037L76.603 42.5952L77.5962 45.6523L74.9958 43.763L72.3948 45.6523L73.3886 42.5952L70.7876 40.7056H74.0023L74.9958 37.6484Z" fill="#F0F0F0"/>
<path d="M85.2556 37.6484L86.249 40.7056H89.4632L86.8628 42.5952L87.8562 45.6523L85.2556 43.763L82.6546 45.6523L83.6483 42.5952L81.0474 40.7056H84.2618L85.2556 37.6484Z" fill="#F0F0F0"/>
<path d="M95.5152 37.6484L96.5087 40.7056H99.7231L97.1228 42.5952L98.1162 45.6523L95.5152 43.763L92.9145 45.6523L93.908 42.5952L91.3076 40.7056H94.5218L95.5152 37.6484Z" fill="#F0F0F0"/>
<path d="M64.7354 26.9766L65.7289 30.0334H68.9434L66.3427 31.9233L67.3361 34.9802L64.7354 33.0908L62.1348 34.9802L63.1282 31.9233L60.5278 30.0334H63.742L64.7354 26.9766Z" fill="#F0F0F0"/>
<path d="M74.9958 26.9766L75.989 30.0334H79.2037L76.603 31.9233L77.5962 34.9802L74.9958 33.0908L72.3948 34.9802L73.3886 31.9233L70.7876 30.0334H74.0023L74.9958 26.9766Z" fill="#F0F0F0"/>
<path d="M85.2556 26.9766L86.249 30.0334H89.4632L86.8628 31.9233L87.8562 34.9802L85.2556 33.0908L82.6546 34.9802L83.6483 31.9233L81.0474 30.0334H84.2618L85.2556 26.9766Z" fill="#F0F0F0"/>
<path d="M95.5152 26.9766L96.5087 30.0334H99.7231L97.1228 31.9233L98.1162 34.9802L95.5152 33.0908L92.9145 34.9802L93.908 31.9233L91.3076 30.0334H94.5218L95.5152 26.9766Z" fill="#F0F0F0"/>
<path d="M74.9958 16.3042L75.989 19.3616H79.2037L76.603 21.251L77.5962 24.3084L74.9958 22.419L72.3948 24.3084L73.3886 21.251L70.7876 19.3616H74.0023L74.9958 16.3042Z" fill="#F0F0F0"/>
<path d="M85.2556 16.3042L86.249 19.3616H89.4632L86.8628 21.251L87.8562 24.3084L85.2556 22.419L82.6546 24.3084L83.6483 21.251L81.0474 19.3616H84.2618L85.2556 16.3042Z" fill="#F0F0F0"/>
<path d="M95.5152 16.3042L96.5087 19.3616H99.7231L97.1228 21.251L98.1162 24.3084L95.5152 22.419L92.9145 24.3084L93.908 21.251L91.3076 19.3616H94.5218L95.5152 16.3042Z" fill="#F0F0F0"/>
</g>
<defs>
<clipPath id="clip0_4_7325">
<rect width="150" height="150" fill="white"/>
</clipPath>
</defs>
</svg>
