<svg width="210" height="210" viewBox="0 0 210 210" fill="none" xmlns="http://www.w3.org/2000/svg">
<path d="M10.5 59.5H3.5V66.5H10.5V59.5Z" fill="white"/>
<path d="M10.5 94.5H3.5V101.5H10.5V94.5Z" fill="white"/>
<path d="M10.5 108.5H3.5V115.5H10.5V108.5Z" fill="white"/>
<path d="M10.5 122.5H3.5V129.5H10.5V122.5Z" fill="white"/>
<path d="M10.5 129.5H3.5V136.5H10.5V129.5Z" fill="white"/>
<path d="M10.5 143.5H3.5V150.5H10.5V143.5Z" fill="white"/>
<path d="M17.5 66.5H10.5V73.5H17.5V66.5Z" fill="white"/>
<path d="M17.5 80.5H10.5V87.5H17.5V80.5Z" fill="white"/>
<path d="M17.5 87.5H10.5V94.5H17.5V87.5Z" fill="white"/>
<path d="M17.5 108.5H10.5V115.5H17.5V108.5Z" fill="white"/>
<path d="M17.5 136.5H10.5V143.5H17.5V136.5Z" fill="white"/>
<path d="M24.5 66.5H17.5V73.5H24.5V66.5Z" fill="white"/>
<path d="M24.5 87.5H17.5V94.5H24.5V87.5Z" fill="white"/>
<path d="M24.5 108.5H17.5V115.5H24.5V108.5Z" fill="white"/>
<path d="M24.5 136.5H17.5V143.5H24.5V136.5Z" fill="white"/>
<path d="M24.5 143.5H17.5V150.5H24.5V143.5Z" fill="white"/>
<path d="M31.5 73.5H24.5V80.5H31.5V73.5Z" fill="white"/>
<path d="M31.5 87.5H24.5V94.5H31.5V87.5Z" fill="white"/>
<path d="M31.5 115.5H24.5V122.5H31.5V115.5Z" fill="white"/>
<path d="M31.5 122.5H24.5V129.5H31.5V122.5Z" fill="white"/>
<path d="M31.5 136.5H24.5V143.5H31.5V136.5Z" fill="white"/>
<path d="M38.5 59.5H31.5V66.5H38.5V59.5Z" fill="white"/>
<path d="M38.5 66.5H31.5V73.5H38.5V66.5Z" fill="white"/>
<path d="M38.5 73.5H31.5V80.5H38.5V73.5Z" fill="white"/>
<path d="M38.5 101.5H31.5V108.5H38.5V101.5Z" fill="white"/>
<path d="M38.5 108.5H31.5V115.5H38.5V108.5Z" fill="white"/>
<path d="M38.5 115.5H31.5V122.5H38.5V115.5Z" fill="white"/>
<path d="M38.5 136.5H31.5V143.5H38.5V136.5Z" fill="white"/>
<path d="M45.5 59.5H38.5V66.5H45.5V59.5Z" fill="white"/>
<path d="M45.5 66.5H38.5V73.5H45.5V66.5Z" fill="white"/>
<path d="M45.5 73.5H38.5V80.5H45.5V73.5Z" fill="white"/>
<path d="M45.5 87.5H38.5V94.5H45.5V87.5Z" fill="white"/>
<path d="M45.5 94.5H38.5V101.5H45.5V94.5Z" fill="white"/>
<path d="M45.5 108.5H38.5V115.5H45.5V108.5Z" fill="white"/>
<path d="M45.5 115.5H38.5V122.5H45.5V115.5Z" fill="white"/>
<path d="M45.5 129.5H38.5V136.5H45.5V129.5Z" fill="white"/>
<path d="M45.5 143.5H38.5V150.5H45.5V143.5Z" fill="white"/>
<path d="M52.5 59.5H45.5V66.5H52.5V59.5Z" fill="white"/>
<path d="M52.5 73.5H45.5V80.5H52.5V73.5Z" fill="white"/>
<path d="M52.5 87.5H45.5V94.5H52.5V87.5Z" fill="white"/>
<path d="M52.5 101.5H45.5V108.5H52.5V101.5Z" fill="white"/>
<path d="M52.5 115.5H45.5V122.5H52.5V115.5Z" fill="white"/>
<path d="M52.5 129.5H45.5V136.5H52.5V129.5Z" fill="white"/>
<path d="M52.5 143.5H45.5V150.5H52.5V143.5Z" fill="white"/>
<path d="M59.5 66.5H52.5V73.5H59.5V66.5Z" fill="white"/>
<path d="M59.5 73.5H52.5V80.5H59.5V73.5Z" fill="white"/>
<path d="M59.5 80.5H52.5V87.5H59.5V80.5Z" fill="white"/>
<path d="M59.5 101.5H52.5V108.5H59.5V101.5Z" fill="white"/>
<path d="M59.5 115.5H52.5V122.5H59.5V115.5Z" fill="white"/>
<path d="M59.5 143.5H52.5V150.5H59.5V143.5Z" fill="white"/>
<path d="M66.5 10.5H59.5V17.5H66.5V10.5Z" fill="white"/>
<path d="M66.5 17.5H59.5V24.5H66.5V17.5Z" fill="white"/>
<path d="M66.5 24.5H59.5V31.5H66.5V24.5Z" fill="white"/>
<path d="M66.5 31.5H59.5V38.5H66.5V31.5Z" fill="white"/>
<path d="M66.5 38.5H59.5V45.5H66.5V38.5Z" fill="white"/>
<path d="M66.5 45.5H59.5V52.5H66.5V45.5Z" fill="white"/>
<path d="M66.5 52.5H59.5V59.5H66.5V52.5Z" fill="white"/>
<path d="M66.5 66.5H59.5V73.5H66.5V66.5Z" fill="white"/>
<path d="M66.5 73.5H59.5V80.5H66.5V73.5Z" fill="white"/>
<path d="M66.5 87.5H59.5V94.5H66.5V87.5Z" fill="white"/>
<path d="M66.5 94.5H59.5V101.5H66.5V94.5Z" fill="white"/>
<path d="M66.5 108.5H59.5V115.5H66.5V108.5Z" fill="white"/>
<path d="M66.5 115.5H59.5V122.5H66.5V115.5Z" fill="white"/>
<path d="M66.5 129.5H59.5V136.5H66.5V129.5Z" fill="white"/>
<path d="M66.5 164.5H59.5V171.5H66.5V164.5Z" fill="white"/>
<path d="M66.5 171.5H59.5V178.5H66.5V171.5Z" fill="white"/>
<path d="M66.5 199.5H59.5V206.5H66.5V199.5Z" fill="white"/>
<path d="M73.5 24.5H66.5V31.5H73.5V24.5Z" fill="white"/>
<path d="M73.5 31.5H66.5V38.5H73.5V31.5Z" fill="white"/>
<path d="M73.5 73.5H66.5V80.5H73.5V73.5Z" fill="white"/>
<path d="M73.5 80.5H66.5V87.5H73.5V80.5Z" fill="white"/>
<path d="M73.5 87.5H66.5V94.5H73.5V87.5Z" fill="white"/>
<path d="M73.5 108.5H66.5V115.5H73.5V108.5Z" fill="white"/>
<path d="M73.5 150.5H66.5V157.5H73.5V150.5Z" fill="white"/>
<path d="M73.5 157.5H66.5V164.5H73.5V157.5Z" fill="white"/>
<path d="M73.5 164.5H66.5V171.5H73.5V164.5Z" fill="white"/>
<path d="M73.5 171.5H66.5V178.5H73.5V171.5Z" fill="white"/>
<path d="M73.5 178.5H66.5V185.5H73.5V178.5Z" fill="white"/>
<path d="M73.5 185.5H66.5V192.5H73.5V185.5Z" fill="white"/>
<path d="M73.5 199.5H66.5V206.5H73.5V199.5Z" fill="white"/>
<path d="M80.5 10.5H73.5V17.5H80.5V10.5Z" fill="white"/>
<path d="M80.5 38.5H73.5V45.5H80.5V38.5Z" fill="white"/>
<path d="M80.5 45.5H73.5V52.5H80.5V45.5Z" fill="white"/>
<path d="M80.5 52.5H73.5V59.5H80.5V52.5Z" fill="white"/>
<path d="M80.5 59.5H73.5V66.5H80.5V59.5Z" fill="white"/>
<path d="M80.5 66.5H73.5V73.5H80.5V66.5Z" fill="white"/>
<path d="M80.5 73.5H73.5V80.5H80.5V73.5Z" fill="white"/>
<path d="M80.5 94.5H73.5V101.5H80.5V94.5Z" fill="white"/>
<path d="M80.5 101.5H73.5V108.5H80.5V101.5Z" fill="white"/>
<path d="M80.5 129.5H73.5V136.5H80.5V129.5Z" fill="white"/>
<path d="M80.5 150.5H73.5V157.5H80.5V150.5Z" fill="white"/>
<path d="M80.5 157.5H73.5V164.5H80.5V157.5Z" fill="white"/>
<path d="M80.5 164.5H73.5V171.5H80.5V164.5Z" fill="white"/>
<path d="M80.5 171.5H73.5V178.5H80.5V171.5Z" fill="white"/>
<path d="M80.5 178.5H73.5V185.5H80.5V178.5Z" fill="white"/>
<path d="M80.5 185.5H73.5V192.5H80.5V185.5Z" fill="white"/>
<path d="M87.5 3.5H80.5V10.5H87.5V3.5Z" fill="white"/>
<path d="M87.5 10.5H80.5V17.5H87.5V10.5Z" fill="white"/>
<path d="M87.5 17.5H80.5V24.5H87.5V17.5Z" fill="white"/>
<path d="M87.5 52.5H80.5V59.5H87.5V52.5Z" fill="white"/>
<path d="M87.5 66.5H80.5V73.5H87.5V66.5Z" fill="white"/>
<path d="M87.5 73.5H80.5V80.5H87.5V73.5Z" fill="white"/>
<path d="M87.5 80.5H80.5V87.5H87.5V80.5Z" fill="white"/>
<path d="M87.5 87.5H80.5V94.5H87.5V87.5Z" fill="white"/>
<path d="M87.5 94.5H80.5V101.5H87.5V94.5Z" fill="white"/>
<path d="M87.5 108.5H80.5V115.5H87.5V108.5Z" fill="white"/>
<path d="M87.5 136.5H80.5V143.5H87.5V136.5Z" fill="white"/>
<path d="M87.5 150.5H80.5V157.5H87.5V150.5Z" fill="white"/>
<path d="M87.5 157.5H80.5V164.5H87.5V157.5Z" fill="white"/>
<path d="M87.5 178.5H80.5V185.5H87.5V178.5Z" fill="white"/>
<path d="M87.5 192.5H80.5V199.5H87.5V192.5Z" fill="white"/>
<path d="M94.5 10.5H87.5V17.5H94.5V10.5Z" fill="white"/>
<path d="M94.5 24.5H87.5V31.5H94.5V24.5Z" fill="white"/>
<path d="M94.5 31.5H87.5V38.5H94.5V31.5Z" fill="white"/>
<path d="M94.5 45.5H87.5V52.5H94.5V45.5Z" fill="white"/>
<path d="M94.5 52.5H87.5V59.5H94.5V52.5Z" fill="white"/>
<path d="M94.5 66.5H87.5V73.5H94.5V66.5Z" fill="white"/>
<path d="M94.5 108.5H87.5V115.5H94.5V108.5Z" fill="white"/>
<path d="M94.5 115.5H87.5V122.5H94.5V115.5Z" fill="white"/>
<path d="M94.5 122.5H87.5V129.5H94.5V122.5Z" fill="white"/>
<path d="M94.5 150.5H87.5V157.5H94.5V150.5Z" fill="white"/>
<path d="M94.5 164.5H87.5V171.5H94.5V164.5Z" fill="white"/>
<path d="M94.5 185.5H87.5V192.5H94.5V185.5Z" fill="white"/>
<path d="M94.5 192.5H87.5V199.5H94.5V192.5Z" fill="white"/>
<path d="M94.5 199.5H87.5V206.5H94.5V199.5Z" fill="white"/>
<path d="M101.5 3.5H94.5V10.5H101.5V3.5Z" fill="white"/>
<path d="M101.5 17.5H94.5V24.5H101.5V17.5Z" fill="white"/>
<path d="M101.5 24.5H94.5V31.5H101.5V24.5Z" fill="white"/>
<path d="M101.5 31.5H94.5V38.5H101.5V31.5Z" fill="white"/>
<path d="M101.5 38.5H94.5V45.5H101.5V38.5Z" fill="white"/>
<path d="M101.5 66.5H94.5V73.5H101.5V66.5Z" fill="white"/>
<path d="M101.5 101.5H94.5V108.5H101.5V101.5Z" fill="white"/>
<path d="M101.5 108.5H94.5V115.5H101.5V108.5Z" fill="white"/>
<path d="M101.5 115.5H94.5V122.5H101.5V115.5Z" fill="white"/>
<path d="M101.5 122.5H94.5V129.5H101.5V122.5Z" fill="white"/>
<path d="M101.5 136.5H94.5V143.5H101.5V136.5Z" fill="white"/>
<path d="M101.5 143.5H94.5V150.5H101.5V143.5Z" fill="white"/>
<path d="M101.5 150.5H94.5V157.5H101.5V150.5Z" fill="white"/>
<path d="M101.5 157.5H94.5V164.5H101.5V157.5Z" fill="white"/>
<path d="M101.5 171.5H94.5V178.5H101.5V171.5Z" fill="white"/>
<path d="M101.5 178.5H94.5V185.5H101.5V178.5Z" fill="white"/>
<path d="M101.5 192.5H94.5V199.5H101.5V192.5Z" fill="white"/>
<path d="M101.5 199.5H94.5V206.5H101.5V199.5Z" fill="white"/>
<path d="M108.5 10.5H101.5V17.5H108.5V10.5Z" fill="white"/>
<path d="M108.5 17.5H101.5V24.5H108.5V17.5Z" fill="white"/>
<path d="M108.5 45.5H101.5V52.5H108.5V45.5Z" fill="white"/>
<path d="M108.5 52.5H101.5V59.5H108.5V52.5Z" fill="white"/>
<path d="M108.5 59.5H101.5V66.5H108.5V59.5Z" fill="white"/>
<path d="M108.5 66.5H101.5V73.5H108.5V66.5Z" fill="white"/>
<path d="M108.5 80.5H101.5V87.5H108.5V80.5Z" fill="white"/>
<path d="M108.5 87.5H101.5V94.5H108.5V87.5Z" fill="white"/>
<path d="M108.5 94.5H101.5V101.5H108.5V94.5Z" fill="white"/>
<path d="M108.5 101.5H101.5V108.5H108.5V101.5Z" fill="white"/>
<path d="M108.5 108.5H101.5V115.5H108.5V108.5Z" fill="white"/>
<path d="M108.5 122.5H101.5V129.5H108.5V122.5Z" fill="white"/>
<path d="M108.5 143.5H101.5V150.5H108.5V143.5Z" fill="white"/>
<path d="M108.5 164.5H101.5V171.5H108.5V164.5Z" fill="white"/>
<path d="M108.5 192.5H101.5V199.5H108.5V192.5Z" fill="white"/>
<path d="M115.5 31.5H108.5V38.5H115.5V31.5Z" fill="white"/>
<path d="M115.5 38.5H108.5V45.5H115.5V38.5Z" fill="white"/>
<path d="M115.5 52.5H108.5V59.5H115.5V52.5Z" fill="white"/>
<path d="M115.5 59.5H108.5V66.5H115.5V59.5Z" fill="white"/>
<path d="M115.5 66.5H108.5V73.5H115.5V66.5Z" fill="white"/>
<path d="M115.5 87.5H108.5V94.5H115.5V87.5Z" fill="white"/>
<path d="M115.5 94.5H108.5V101.5H115.5V94.5Z" fill="white"/>
<path d="M115.5 122.5H108.5V129.5H115.5V122.5Z" fill="white"/>
<path d="M115.5 129.5H108.5V136.5H115.5V129.5Z" fill="white"/>
<path d="M115.5 143.5H108.5V150.5H115.5V143.5Z" fill="white"/>
<path d="M115.5 171.5H108.5V178.5H115.5V171.5Z" fill="white"/>
<path d="M115.5 178.5H108.5V185.5H115.5V178.5Z" fill="white"/>
<path d="M122.5 10.5H115.5V17.5H122.5V10.5Z" fill="white"/>
<path d="M122.5 24.5H115.5V31.5H122.5V24.5Z" fill="white"/>
<path d="M122.5 45.5H115.5V52.5H122.5V45.5Z" fill="white"/>
<path d="M122.5 52.5H115.5V59.5H122.5V52.5Z" fill="white"/>
<path d="M122.5 66.5H115.5V73.5H122.5V66.5Z" fill="white"/>
<path d="M122.5 73.5H115.5V80.5H122.5V73.5Z" fill="white"/>
<path d="M122.5 80.5H115.5V87.5H122.5V80.5Z" fill="white"/>
<path d="M122.5 94.5H115.5V101.5H122.5V94.5Z" fill="white"/>
<path d="M122.5 115.5H115.5V122.5H122.5V115.5Z" fill="white"/>
<path d="M122.5 136.5H115.5V143.5H122.5V136.5Z" fill="white"/>
<path d="M122.5 164.5H115.5V171.5H122.5V164.5Z" fill="white"/>
<path d="M122.5 178.5H115.5V185.5H122.5V178.5Z" fill="white"/>
<path d="M122.5 185.5H115.5V192.5H122.5V185.5Z" fill="white"/>
<path d="M122.5 199.5H115.5V206.5H122.5V199.5Z" fill="white"/>
<path d="M129.5 3.5H122.5V10.5H129.5V3.5Z" fill="white"/>
<path d="M129.5 17.5H122.5V24.5H129.5V17.5Z" fill="white"/>
<path d="M129.5 31.5H122.5V38.5H129.5V31.5Z" fill="white"/>
<path d="M129.5 38.5H122.5V45.5H129.5V38.5Z" fill="white"/>
<path d="M129.5 59.5H122.5V66.5H129.5V59.5Z" fill="white"/>
<path d="M129.5 66.5H122.5V73.5H129.5V66.5Z" fill="white"/>
<path d="M129.5 73.5H122.5V80.5H129.5V73.5Z" fill="white"/>
<path d="M129.5 101.5H122.5V108.5H129.5V101.5Z" fill="white"/>
<path d="M129.5 108.5H122.5V115.5H129.5V108.5Z" fill="white"/>
<path d="M129.5 129.5H122.5V136.5H129.5V129.5Z" fill="white"/>
<path d="M129.5 143.5H122.5V150.5H129.5V143.5Z" fill="white"/>
<path d="M129.5 150.5H122.5V157.5H129.5V150.5Z" fill="white"/>
<path d="M129.5 157.5H122.5V164.5H129.5V157.5Z" fill="white"/>
<path d="M129.5 164.5H122.5V171.5H129.5V164.5Z" fill="white"/>
<path d="M129.5 171.5H122.5V178.5H129.5V171.5Z" fill="white"/>
<path d="M129.5 185.5H122.5V192.5H129.5V185.5Z" fill="white"/>
<path d="M129.5 192.5H122.5V199.5H129.5V192.5Z" fill="white"/>
<path d="M129.5 199.5H122.5V206.5H129.5V199.5Z" fill="white"/>
<path d="M136.5 3.5H129.5V10.5H136.5V3.5Z" fill="white"/>
<path d="M136.5 17.5H129.5V24.5H136.5V17.5Z" fill="white"/>
<path d="M136.5 45.5H129.5V52.5H136.5V45.5Z" fill="white"/>
<path d="M136.5 59.5H129.5V66.5H136.5V59.5Z" fill="white"/>
<path d="M136.5 73.5H129.5V80.5H136.5V73.5Z" fill="white"/>
<path d="M136.5 87.5H129.5V94.5H136.5V87.5Z" fill="white"/>
<path d="M136.5 94.5H129.5V101.5H136.5V94.5Z" fill="white"/>
<path d="M136.5 108.5H129.5V115.5H136.5V108.5Z" fill="white"/>
<path d="M136.5 115.5H129.5V122.5H136.5V115.5Z" fill="white"/>
<path d="M136.5 122.5H129.5V129.5H136.5V122.5Z" fill="white"/>
<path d="M136.5 129.5H129.5V136.5H136.5V129.5Z" fill="white"/>
<path d="M136.5 143.5H129.5V150.5H136.5V143.5Z" fill="white"/>
<path d="M136.5 157.5H129.5V164.5H136.5V157.5Z" fill="white"/>
<path d="M136.5 164.5H129.5V171.5H136.5V164.5Z" fill="white"/>
<path d="M136.5 171.5H129.5V178.5H136.5V171.5Z" fill="white"/>
<path d="M143.5 3.5H136.5V10.5H143.5V3.5Z" fill="white"/>
<path d="M143.5 24.5H136.5V31.5H143.5V24.5Z" fill="white"/>
<path d="M143.5 38.5H136.5V45.5H143.5V38.5Z" fill="white"/>
<path d="M143.5 59.5H136.5V66.5H143.5V59.5Z" fill="white"/>
<path d="M143.5 73.5H136.5V80.5H143.5V73.5Z" fill="white"/>
<path d="M143.5 94.5H136.5V101.5H143.5V94.5Z" fill="white"/>
<path d="M143.5 108.5H136.5V115.5H143.5V108.5Z" fill="white"/>
<path d="M143.5 129.5H136.5V136.5H143.5V129.5Z" fill="white"/>
<path d="M143.5 143.5H136.5V150.5H143.5V143.5Z" fill="white"/>
<path d="M143.5 157.5H136.5V164.5H143.5V157.5Z" fill="white"/>
<path d="M143.5 171.5H136.5V178.5H143.5V171.5Z" fill="white"/>
<path d="M143.5 192.5H136.5V199.5H143.5V192.5Z" fill="white"/>
<path d="M143.5 199.5H136.5V206.5H143.5V199.5Z" fill="white"/>
<path d="M150.5 3.5H143.5V10.5H150.5V3.5Z" fill="white"/>
<path d="M150.5 17.5H143.5V24.5H150.5V17.5Z" fill="white"/>
<path d="M150.5 24.5H143.5V31.5H150.5V24.5Z" fill="white"/>
<path d="M150.5 31.5H143.5V38.5H150.5V31.5Z" fill="white"/>
<path d="M150.5 38.5H143.5V45.5H150.5V38.5Z" fill="white"/>
<path d="M150.5 45.5H143.5V52.5H150.5V45.5Z" fill="white"/>
<path d="M150.5 59.5H143.5V66.5H150.5V59.5Z" fill="white"/>
<path d="M150.5 66.5H143.5V73.5H150.5V66.5Z" fill="white"/>
<path d="M150.5 73.5H143.5V80.5H150.5V73.5Z" fill="white"/>
<path d="M150.5 80.5H143.5V87.5H150.5V80.5Z" fill="white"/>
<path d="M150.5 87.5H143.5V94.5H150.5V87.5Z" fill="white"/>
<path d="M150.5 101.5H143.5V108.5H150.5V101.5Z" fill="white"/>
<path d="M150.5 108.5H143.5V115.5H150.5V108.5Z" fill="white"/>
<path d="M150.5 122.5H143.5V129.5H150.5V122.5Z" fill="white"/>
<path d="M150.5 129.5H143.5V136.5H150.5V129.5Z" fill="white"/>
<path d="M150.5 136.5H143.5V143.5H150.5V136.5Z" fill="white"/>
<path d="M150.5 143.5H143.5V150.5H150.5V143.5Z" fill="white"/>
<path d="M150.5 150.5H143.5V157.5H150.5V150.5Z" fill="white"/>
<path d="M150.5 157.5H143.5V164.5H150.5V157.5Z" fill="white"/>
<path d="M150.5 164.5H143.5V171.5H150.5V164.5Z" fill="white"/>
<path d="M150.5 171.5H143.5V178.5H150.5V171.5Z" fill="white"/>
<path d="M150.5 178.5H143.5V185.5H150.5V178.5Z" fill="white"/>
<path d="M150.5 185.5H143.5V192.5H150.5V185.5Z" fill="white"/>
<path d="M150.5 192.5H143.5V199.5H150.5V192.5Z" fill="white"/>
<path d="M150.5 199.5H143.5V206.5H150.5V199.5Z" fill="white"/>
<path d="M157.5 59.5H150.5V66.5H157.5V59.5Z" fill="white"/>
<path d="M157.5 66.5H150.5V73.5H157.5V66.5Z" fill="white"/>
<path d="M157.5 73.5H150.5V80.5H157.5V73.5Z" fill="white"/>
<path d="M157.5 87.5H150.5V94.5H157.5V87.5Z" fill="white"/>
<path d="M157.5 115.5H150.5V122.5H157.5V115.5Z" fill="white"/>
<path d="M157.5 129.5H150.5V136.5H157.5V129.5Z" fill="white"/>
<path d="M157.5 143.5H150.5V150.5H157.5V143.5Z" fill="white"/>
<path d="M157.5 171.5H150.5V178.5H157.5V171.5Z" fill="white"/>
<path d="M157.5 178.5H150.5V185.5H157.5V178.5Z" fill="white"/>
<path d="M157.5 192.5H150.5V199.5H157.5V192.5Z" fill="white"/>
<path d="M157.5 199.5H150.5V206.5H157.5V199.5Z" fill="white"/>
<path d="M164.5 59.5H157.5V66.5H164.5V59.5Z" fill="white"/>
<path d="M164.5 66.5H157.5V73.5H164.5V66.5Z" fill="white"/>
<path d="M164.5 94.5H157.5V101.5H164.5V94.5Z" fill="white"/>
<path d="M164.5 108.5H157.5V115.5H164.5V108.5Z" fill="white"/>
<path d="M164.5 115.5H157.5V122.5H164.5V115.5Z" fill="white"/>
<path d="M164.5 129.5H157.5V136.5H164.5V129.5Z" fill="white"/>
<path d="M164.5 136.5H157.5V143.5H164.5V136.5Z" fill="white"/>
<path d="M164.5 143.5H157.5V150.5H164.5V143.5Z" fill="white"/>
<path d="M164.5 157.5H157.5V164.5H164.5V157.5Z" fill="white"/>
<path d="M164.5 171.5H157.5V178.5H164.5V171.5Z" fill="white"/>
<path d="M171.5 59.5H164.5V66.5H171.5V59.5Z" fill="white"/>
<path d="M171.5 66.5H164.5V73.5H171.5V66.5Z" fill="white"/>
<path d="M171.5 101.5H164.5V108.5H171.5V101.5Z" fill="white"/>
<path d="M171.5 136.5H164.5V143.5H171.5V136.5Z" fill="white"/>
<path d="M171.5 143.5H164.5V150.5H171.5V143.5Z" fill="white"/>
<path d="M171.5 171.5H164.5V178.5H171.5V171.5Z" fill="white"/>
<path d="M171.5 178.5H164.5V185.5H171.5V178.5Z" fill="white"/>
<path d="M171.5 199.5H164.5V206.5H171.5V199.5Z" fill="white"/>
<path d="M178.5 59.5H171.5V66.5H178.5V59.5Z" fill="white"/>
<path d="M178.5 80.5H171.5V87.5H178.5V80.5Z" fill="white"/>
<path d="M178.5 87.5H171.5V94.5H178.5V87.5Z" fill="white"/>
<path d="M178.5 101.5H171.5V108.5H178.5V101.5Z" fill="white"/>
<path d="M178.5 108.5H171.5V115.5H178.5V108.5Z" fill="white"/>
<path d="M178.5 129.5H171.5V136.5H178.5V129.5Z" fill="white"/>
<path d="M178.5 143.5H171.5V150.5H178.5V143.5Z" fill="white"/>
<path d="M178.5 150.5H171.5V157.5H178.5V150.5Z" fill="white"/>
<path d="M178.5 157.5H171.5V164.5H178.5V157.5Z" fill="white"/>
<path d="M178.5 164.5H171.5V171.5H178.5V164.5Z" fill="white"/>
<path d="M178.5 171.5H171.5V178.5H178.5V171.5Z" fill="white"/>
<path d="M178.5 178.5H171.5V185.5H178.5V178.5Z" fill="white"/>
<path d="M178.5 185.5H171.5V192.5H178.5V185.5Z" fill="white"/>
<path d="M178.5 199.5H171.5V206.5H178.5V199.5Z" fill="white"/>
<path d="M185.5 59.5H178.5V66.5H185.5V59.5Z" fill="white"/>
<path d="M185.5 66.5H178.5V73.5H185.5V66.5Z" fill="white"/>
<path d="M185.5 80.5H178.5V87.5H185.5V80.5Z" fill="white"/>
<path d="M185.5 108.5H178.5V115.5H185.5V108.5Z" fill="white"/>
<path d="M185.5 115.5H178.5V122.5H185.5V115.5Z" fill="white"/>
<path d="M185.5 122.5H178.5V129.5H185.5V122.5Z" fill="white"/>
<path d="M185.5 136.5H178.5V143.5H185.5V136.5Z" fill="white"/>
<path d="M185.5 143.5H178.5V150.5H185.5V143.5Z" fill="white"/>
<path d="M185.5 150.5H178.5V157.5H185.5V150.5Z" fill="white"/>
<path d="M185.5 164.5H178.5V171.5H185.5V164.5Z" fill="white"/>
<path d="M185.5 178.5H178.5V185.5H185.5V178.5Z" fill="white"/>
<path d="M192.5 59.5H185.5V66.5H192.5V59.5Z" fill="white"/>
<path d="M192.5 94.5H185.5V101.5H192.5V94.5Z" fill="white"/>
<path d="M192.5 101.5H185.5V108.5H192.5V101.5Z" fill="white"/>
<path d="M192.5 122.5H185.5V129.5H192.5V122.5Z" fill="white"/>
<path d="M192.5 136.5H185.5V143.5H192.5V136.5Z" fill="white"/>
<path d="M192.5 143.5H185.5V150.5H192.5V143.5Z" fill="white"/>
<path d="M192.5 150.5H185.5V157.5H192.5V150.5Z" fill="white"/>
<path d="M192.5 157.5H185.5V164.5H192.5V157.5Z" fill="white"/>
<path d="M192.5 164.5H185.5V171.5H192.5V164.5Z" fill="white"/>
<path d="M192.5 171.5H185.5V178.5H192.5V171.5Z" fill="white"/>
<path d="M192.5 178.5H185.5V185.5H192.5V178.5Z" fill="white"/>
<path d="M192.5 185.5H185.5V192.5H192.5V185.5Z" fill="white"/>
<path d="M192.5 192.5H185.5V199.5H192.5V192.5Z" fill="white"/>
<path d="M199.5 59.5H192.5V66.5H199.5V59.5Z" fill="white"/>
<path d="M199.5 66.5H192.5V73.5H199.5V66.5Z" fill="white"/>
<path d="M199.5 73.5H192.5V80.5H199.5V73.5Z" fill="white"/>
<path d="M199.5 80.5H192.5V87.5H199.5V80.5Z" fill="white"/>
<path d="M199.5 101.5H192.5V108.5H199.5V101.5Z" fill="white"/>
<path d="M199.5 115.5H192.5V122.5H199.5V115.5Z" fill="white"/>
<path d="M199.5 129.5H192.5V136.5H199.5V129.5Z" fill="white"/>
<path d="M199.5 150.5H192.5V157.5H199.5V150.5Z" fill="white"/>
<path d="M199.5 157.5H192.5V164.5H199.5V157.5Z" fill="white"/>
<path d="M199.5 171.5H192.5V178.5H199.5V171.5Z" fill="white"/>
<path d="M199.5 178.5H192.5V185.5H199.5V178.5Z" fill="white"/>
<path d="M199.5 192.5H192.5V199.5H199.5V192.5Z" fill="white"/>
<path d="M206.5 73.5H199.5V80.5H206.5V73.5Z" fill="white"/>
<path d="M206.5 80.5H199.5V87.5H206.5V80.5Z" fill="white"/>
<path d="M206.5 101.5H199.5V108.5H206.5V101.5Z" fill="white"/>
<path d="M206.5 122.5H199.5V129.5H206.5V122.5Z" fill="white"/>
<path d="M206.5 136.5H199.5V143.5H206.5V136.5Z" fill="white"/>
<path d="M206.5 157.5H199.5V164.5H206.5V157.5Z" fill="white"/>
<path d="M206.5 171.5H199.5V178.5H206.5V171.5Z" fill="white"/>
<path d="M206.5 178.5H199.5V185.5H206.5V178.5Z" fill="white"/>
<path d="M10.5 3.5H3.5V10.5H10.5V3.5Z" fill="white"/>
<path d="M10.5 10.5H3.5V17.5H10.5V10.5Z" fill="white"/>
<path d="M10.5 17.5H3.5V24.5H10.5V17.5Z" fill="white"/>
<path d="M10.5 24.5H3.5V31.5H10.5V24.5Z" fill="white"/>
<path d="M10.5 31.5H3.5V38.5H10.5V31.5Z" fill="white"/>
<path d="M10.5 38.5H3.5V45.5H10.5V38.5Z" fill="white"/>
<path d="M10.5 45.5H3.5V52.5H10.5V45.5Z" fill="white"/>
<path d="M17.5 3.5H10.5V10.5H17.5V3.5Z" fill="white"/>
<path d="M17.5 45.5H10.5V52.5H17.5V45.5Z" fill="white"/>
<path d="M24.5 3.5H17.5V10.5H24.5V3.5Z" fill="white"/>
<path d="M24.5 45.5H17.5V52.5H24.5V45.5Z" fill="white"/>
<path d="M31.5 3.5H24.5V10.5H31.5V3.5Z" fill="white"/>
<path d="M31.5 45.5H24.5V52.5H31.5V45.5Z" fill="white"/>
<path d="M38.5 3.5H31.5V10.5H38.5V3.5Z" fill="white"/>
<path d="M38.5 45.5H31.5V52.5H38.5V45.5Z" fill="white"/>
<path d="M45.5 3.5H38.5V10.5H45.5V3.5Z" fill="white"/>
<path d="M45.5 45.5H38.5V52.5H45.5V45.5Z" fill="white"/>
<path d="M52.5 3.5H45.5V10.5H52.5V3.5Z" fill="white"/>
<path d="M52.5 10.5H45.5V17.5H52.5V10.5Z" fill="white"/>
<path d="M52.5 17.5H45.5V24.5H52.5V17.5Z" fill="white"/>
<path d="M52.5 24.5H45.5V31.5H52.5V24.5Z" fill="white"/>
<path d="M52.5 31.5H45.5V38.5H52.5V31.5Z" fill="white"/>
<path d="M52.5 38.5H45.5V45.5H52.5V38.5Z" fill="white"/>
<path d="M52.5 45.5H45.5V52.5H52.5V45.5Z" fill="white"/>
<path d="M24.5 17.5H17.5V24.5H24.5V17.5Z" fill="white"/>
<path d="M24.5 24.5H17.5V31.5H24.5V24.5Z" fill="white"/>
<path d="M24.5 31.5H17.5V38.5H24.5V31.5Z" fill="white"/>
<path d="M31.5 17.5H24.5V24.5H31.5V17.5Z" fill="white"/>
<path d="M31.5 24.5H24.5V31.5H31.5V24.5Z" fill="white"/>
<path d="M31.5 31.5H24.5V38.5H31.5V31.5Z" fill="white"/>
<path d="M38.5 17.5H31.5V24.5H38.5V17.5Z" fill="white"/>
<path d="M38.5 24.5H31.5V31.5H38.5V24.5Z" fill="white"/>
<path d="M38.5 31.5H31.5V38.5H38.5V31.5Z" fill="white"/>
<path d="M164.5 3.5H157.5V10.5H164.5V3.5Z" fill="white"/>
<path d="M164.5 10.5H157.5V17.5H164.5V10.5Z" fill="white"/>
<path d="M164.5 17.5H157.5V24.5H164.5V17.5Z" fill="white"/>
<path d="M164.5 24.5H157.5V31.5H164.5V24.5Z" fill="white"/>
<path d="M164.5 31.5H157.5V38.5H164.5V31.5Z" fill="white"/>
<path d="M164.5 38.5H157.5V45.5H164.5V38.5Z" fill="white"/>
<path d="M164.5 45.5H157.5V52.5H164.5V45.5Z" fill="white"/>
<path d="M171.5 3.5H164.5V10.5H171.5V3.5Z" fill="white"/>
<path d="M171.5 45.5H164.5V52.5H171.5V45.5Z" fill="white"/>
<path d="M178.5 3.5H171.5V10.5H178.5V3.5Z" fill="white"/>
<path d="M178.5 45.5H171.5V52.5H178.5V45.5Z" fill="white"/>
<path d="M185.5 3.5H178.5V10.5H185.5V3.5Z" fill="white"/>
<path d="M185.5 45.5H178.5V52.5H185.5V45.5Z" fill="white"/>
<path d="M192.5 3.5H185.5V10.5H192.5V3.5Z" fill="white"/>
<path d="M192.5 45.5H185.5V52.5H192.5V45.5Z" fill="white"/>
<path d="M199.5 3.5H192.5V10.5H199.5V3.5Z" fill="white"/>
<path d="M199.5 45.5H192.5V52.5H199.5V45.5Z" fill="white"/>
<path d="M206.5 3.5H199.5V10.5H206.5V3.5Z" fill="white"/>
<path d="M206.5 10.5H199.5V17.5H206.5V10.5Z" fill="white"/>
<path d="M206.5 17.5H199.5V24.5H206.5V17.5Z" fill="white"/>
<path d="M206.5 24.5H199.5V31.5H206.5V24.5Z" fill="white"/>
<path d="M206.5 31.5H199.5V38.5H206.5V31.5Z" fill="white"/>
<path d="M206.5 38.5H199.5V45.5H206.5V38.5Z" fill="white"/>
<path d="M206.5 45.5H199.5V52.5H206.5V45.5Z" fill="white"/>
<path d="M178.5 17.5H171.5V24.5H178.5V17.5Z" fill="white"/>
<path d="M178.5 24.5H171.5V31.5H178.5V24.5Z" fill="white"/>
<path d="M178.5 31.5H171.5V38.5H178.5V31.5Z" fill="white"/>
<path d="M185.5 17.5H178.5V24.5H185.5V17.5Z" fill="white"/>
<path d="M185.5 24.5H178.5V31.5H185.5V24.5Z" fill="white"/>
<path d="M185.5 31.5H178.5V38.5H185.5V31.5Z" fill="white"/>
<path d="M192.5 17.5H185.5V24.5H192.5V17.5Z" fill="white"/>
<path d="M192.5 24.5H185.5V31.5H192.5V24.5Z" fill="white"/>
<path d="M192.5 31.5H185.5V38.5H192.5V31.5Z" fill="white"/>
<path d="M10.5 157.5H3.5V164.5H10.5V157.5Z" fill="white"/>
<path d="M10.5 164.5H3.5V171.5H10.5V164.5Z" fill="white"/>
<path d="M10.5 171.5H3.5V178.5H10.5V171.5Z" fill="white"/>
<path d="M10.5 178.5H3.5V185.5H10.5V178.5Z" fill="white"/>
<path d="M10.5 185.5H3.5V192.5H10.5V185.5Z" fill="white"/>
<path d="M10.5 192.5H3.5V199.5H10.5V192.5Z" fill="white"/>
<path d="M10.5 199.5H3.5V206.5H10.5V199.5Z" fill="white"/>
<path d="M17.5 157.5H10.5V164.5H17.5V157.5Z" fill="white"/>
<path d="M17.5 199.5H10.5V206.5H17.5V199.5Z" fill="white"/>
<path d="M24.5 157.5H17.5V164.5H24.5V157.5Z" fill="white"/>
<path d="M24.5 199.5H17.5V206.5H24.5V199.5Z" fill="white"/>
<path d="M31.5 157.5H24.5V164.5H31.5V157.5Z" fill="white"/>
<path d="M31.5 199.5H24.5V206.5H31.5V199.5Z" fill="white"/>
<path d="M38.5 157.5H31.5V164.5H38.5V157.5Z" fill="white"/>
<path d="M38.5 199.5H31.5V206.5H38.5V199.5Z" fill="white"/>
<path d="M45.5 157.5H38.5V164.5H45.5V157.5Z" fill="white"/>
<path d="M45.5 199.5H38.5V206.5H45.5V199.5Z" fill="white"/>
<path d="M52.5 157.5H45.5V164.5H52.5V157.5Z" fill="white"/>
<path d="M52.5 164.5H45.5V171.5H52.5V164.5Z" fill="white"/>
<path d="M52.5 171.5H45.5V178.5H52.5V171.5Z" fill="white"/>
<path d="M52.5 178.5H45.5V185.5H52.5V178.5Z" fill="white"/>
<path d="M52.5 185.5H45.5V192.5H52.5V185.5Z" fill="white"/>
<path d="M52.5 192.5H45.5V199.5H52.5V192.5Z" fill="white"/>
<path d="M52.5 199.5H45.5V206.5H52.5V199.5Z" fill="white"/>
<path d="M24.5 171.5H17.5V178.5H24.5V171.5Z" fill="white"/>
<path d="M24.5 178.5H17.5V185.5H24.5V178.5Z" fill="white"/>
<path d="M24.5 185.5H17.5V192.5H24.5V185.5Z" fill="white"/>
<path d="M31.5 171.5H24.5V178.5H31.5V171.5Z" fill="white"/>
<path d="M31.5 178.5H24.5V185.5H31.5V178.5Z" fill="white"/>
<path d="M31.5 185.5H24.5V192.5H31.5V185.5Z" fill="white"/>
<path d="M38.5 171.5H31.5V178.5H38.5V171.5Z" fill="white"/>
<path d="M38.5 178.5H31.5V185.5H38.5V178.5Z" fill="white"/>
<path d="M38.5 185.5H31.5V192.5H38.5V185.5Z" fill="white"/>
</svg>
